<?xml version="1.0" encoding="utf-8"?>
<svg xmlns="http://www.w3.org/2000/svg" viewBox="0 0 500 500">
  <g transform="matrix(0.1, 0, 0, -0.1, 40.854977, 461.45575)" fill="#000000" stroke="none">
    <path d="M1815 3993 c-480 -57 -864 -234 -1195 -550 -685 -651 -816 -1693 -316 -2501 321 -518 867 -860 1490 -933 125 -15 409 -6 531 16 422 76 767 251 1064 539 123 121 197 208 281 336 386 587 437 1326 135 1957 -296 619 -877 1039 -1558 1128 -105 13 -350 18 -432 8z m470 -79 c536 -77 1020 -386 1328 -847 458 -685 426 -1588 -82 -2252 -65 -85 -223 -247 -311 -318 -788 -636 -1924 -563 -2620 169 -221 232 -375 502 -464 817 -87 304 -93 665 -15 978 149 602 585 1104 1157 1333 324 130 660 170 1007 120z" style="fill: rgb(255, 255, 255);"/>
    <path d="M1815 3764 c-494 -69 -876 -274 -1173 -629 -218 -260 -349 -558 -398 -905 -23 -164 -14 -422 20 -581 152 -710 680 -1238 1391 -1389 129 -28 407 -38 555 -20 566 65 1071 409 1353 922 94 170 174 424 198 630 17 146 6 424 -21 553 -149 705 -684 1243 -1384 1391 -101 22 -153 26 -316 29 -107 2 -208 1 -225 -1z m353 -64 c208 -22 395 -75 577 -165 102 -49 248 -140 320 -199 l30 -24 -55 -58 c-30 -33 -169 -177 -310 -322 -140 -145 -256 -267 -258 -273 -2 -5 15 -8 38 -6 41 2 49 9 338 308 l297 306 40 -38 39 -38 -150 -153 c-82 -84 -196 -200 -252 -258 l-101 -105 42 -3 42 -3 231 238 231 238 22 -25 c358 -421 495 -954 380 -1485 -41 -190 -127 -398 -234 -562 -524 -805 -1599 -1024 -2389 -488 -44 30 -97 68 -116 84 l-34 29 121 128 c67 71 160 167 207 214 81 80 86 87 86 127 0 24 -4 43 -9 43 -5 0 -26 -19 -46 -42 -71 -80 -405 -418 -413 -418 -5 0 -23 16 -41 34 l-34 35 269 276 c256 263 269 279 270 316 1 21 -2 39 -6 39 -4 0 -135 -131 -290 -290 -239 -246 -285 -288 -298 -278 -56 47 -194 257 -257 393 -254 542 -207 1167 122 1665 352 531 969 825 1591 760z" style="fill: rgb(255, 255, 255);"/>
    <path d="M1180 2889 c-151 -32 -286 -61 -299 -64 l-25 -6 30 -24 c16 -12 121 -102 234 -199 113 -97 212 -176 220 -176 16 0 566 117 588 125 8 3 -66 73 -175 166 -103 89 -207 179 -230 201 -24 21 -48 38 -55 37 -7 -1 -137 -27 -288 -60z" style="fill: rgb(255, 255, 255);"/>
    <path d="M808 2773 c-3 -4 -40 -148 -83 -320 l-78 -312 29 -24 c16 -14 123 -106 239 -205 169 -145 211 -177 217 -164 4 9 42 154 84 321 64 253 74 305 63 316 -12 10 -398 338 -451 382 -9 8 -18 11 -20 6z" style="fill: rgb(255, 255, 255);"/>
    <path d="M2656 2604 c-131 -7 -240 -15 -241 -16 -1 -2 -78 -113 -171 -248 -93 -135 -173 -250 -177 -257 -6 -9 14 -11 85 -7 51 3 192 11 312 17 l219 12 164 240 c91 132 169 248 174 258 12 21 -8 21 -365 1z" style="fill: rgb(255, 255, 255);"/>
    <path d="M2908 2333 l-176 -258 29 -50 c16 -27 88 -157 161 -287 73 -131 135 -237 138 -237 3 0 14 14 26 32 11 18 88 132 172 255 84 123 152 228 152 234 0 13 -312 568 -320 568 -3 0 -85 -116 -182 -257z" style="fill: rgb(255, 255, 255);"/>
    <path d="M1650 2424 c-162 -35 -297 -67 -300 -72 -10 -11 -162 -624 -156 -629 5 -5 591 118 606 127 14 9 169 640 156 639 -6 0 -144 -29 -306 -65z" style="fill: rgb(255, 255, 255);"/>
    <path d="M2368 2031 c-164 -10 -300 -20 -304 -24 -4 -3 15 -45 42 -92 l49 -87 222 -102 c122 -56 224 -104 227 -106 2 -3 8 -41 11 -85 4 -44 9 -82 10 -83 5 -6 365 15 371 21 8 8 -308 570 -321 572 -5 1 -144 -5 -307 -14z" style="fill: rgb(255, 255, 255);"/>
    <path d="M1930 1841 c-8 -4 -129 -67 -267 -140 -139 -73 -253 -136 -253 -139 0 -9 536 -252 556 -252 25 0 546 282 537 291 -12 12 -532 249 -546 249 -7 0 -19 -4 -27 -9z" style="fill: rgb(255, 255, 255);"/>
    <path d="M2272 1401 l-274 -146 6 -225 c6 -211 16 -433 19 -436 1 -1 126 65 277 146 l275 147 0 34 c0 139 -18 615 -23 620 -4 3 -130 -60 -280 -140z" style="fill: rgb(255, 255, 255);"/>
    <path d="M1367 1333 c3 -98 8 -247 12 -331 l6 -153 284 -130 c156 -71 286 -129 289 -129 2 0 2 60 -2 133 -3 72 -8 220 -12 327 -3 107 -9 198 -12 202 -4 3 -77 38 -162 76 -85 39 -210 95 -278 126 -68 31 -125 56 -127 56 -2 0 -1 -80 2 -177z" style="fill: rgb(255, 255, 255);"/>
  </g>
</svg>